<?xml version="1.0" encoding="UTF-8" standalone="no"?>
<svg
   xmlns:dc="http://purl.org/dc/elements/1.1/"
   xmlns:cc="http://creativecommons.org/ns#"
   xmlns:rdf="http://www.w3.org/1999/02/22-rdf-syntax-ns#"
   xmlns:svg="http://www.w3.org/2000/svg"
   xmlns="http://www.w3.org/2000/svg"
   xmlns:sodipodi="http://sodipodi.sourceforge.net/DTD/sodipodi-0.dtd"
   xmlns:inkscape="http://www.inkscape.org/namespaces/inkscape"
   width="210mm"
   height="297mm"
   viewBox="0 0 210 297"
   version="1.1"
   id="svg8"
   inkscape:version="1.0 (4035a4fb49, 2020-05-01)"
   sodipodi:docname="cenarios_explicacao_sketches.svg">
  <defs
     id="defs2">
    <filter
       inkscape:collect="always"
       style="color-interpolation-filters:sRGB"
       id="filter3069"
       x="-5.2127592e-05"
       width="1.0001043"
       y="-0.00010233708"
       height="1.0002047">
      <feGaussianBlur
         inkscape:collect="always"
         stdDeviation="0.0026517457"
         id="feGaussianBlur3071" />
    </filter>
  </defs>
  <sodipodi:namedview
     id="base"
     pagecolor="#ffffff"
     bordercolor="#666666"
     borderopacity="1.0"
     inkscape:pageopacity="0.0"
     inkscape:pageshadow="2"
     inkscape:zoom="0.9899495"
     inkscape:cx="268.58015"
     inkscape:cy="676.60907"
     inkscape:document-units="mm"
     inkscape:current-layer="layer2"
     inkscape:document-rotation="0"
     showgrid="false"
     inkscape:snap-object-midpoints="true"
     inkscape:snap-center="true"
     inkscape:snap-intersection-paths="true"
     inkscape:snap-smooth-nodes="true"
     inkscape:snap-midpoints="true"
     inkscape:snap-bbox="true"
     inkscape:window-width="1920"
     inkscape:window-height="1001"
     inkscape:window-x="-9"
     inkscape:window-y="-9"
     inkscape:window-maximized="1" />
  <metadata
     id="metadata5">
    <rdf:RDF>
      <cc:Work
         rdf:about="">
        <dc:format>image/svg+xml</dc:format>
        <dc:type
           rdf:resource="http://purl.org/dc/dcmitype/StillImage" />
        <dc:title></dc:title>
      </cc:Work>
    </rdf:RDF>
  </metadata>
  <g
     inkscape:label="lote"
     inkscape:groupmode="layer"
     id="layer1">
    <path
       sodipodi:nodetypes="ccccc"
       d="m 238.01283,119.66488 c 39.80641,-10.9526 89.98519,0 89.98519,0 0,0 -8.8944,59.42643 0,89.98518 -35.48577,-6.32279 -54.03316,7.75721 -89.98519,0 6.19672,-34.59579 5.111,-68.00894 0,-89.98518 z"
       transform="matrix(0.89106201,0.45388158,-0.89106201,0.45388158,0,0)"
       style="opacity:1;vector-effect:none;fill:none;fill-opacity:1;stroke:#000000;stroke-width:4.44754;stroke-linecap:round;stroke-linejoin:miter;stroke-miterlimit:4;stroke-dasharray:none;stroke-dashoffset:0;stroke-opacity:1"
       id="rect835" />
  </g>
  <g
     inkscape:groupmode="layer"
     id="layer2"
     inkscape:label="CA basico"
     style="display:inline">
    <path
       sodipodi:nodetypes="ccccc"
       d="m 210.30592,91.95797 c 15.30378,1.772957 26.61205,-6.005944 55.41381,0 -8.1509,31.56878 -6.20591,37.47675 0,55.41381 -23.77171,2.32653 -27.70691,2e-5 -55.41381,0 -5.222,-17.21979 -5.98698,-36.47206 0,-55.41381 z"
       transform="matrix(0.89106201,0.45388158,-0.89106201,0.45388158,0,0)"
       style="opacity:1;vector-effect:none;fill:#ffffff;fill-opacity:1;stroke:#000000;stroke-width:1.66783;stroke-linecap:round;stroke-linejoin:bevel;stroke-miterlimit:4;stroke-dasharray:none;stroke-dashoffset:0;stroke-opacity:1"
       id="rect835-5-7" />
    <path
       sodipodi:nodetypes="ccccc"
       id="path882"
       d="m 56.078209,170.62869 1.3e-5,32.55725 49.377148,25.15132 -3e-5,-32.55727 z"
       style="fill:#ffffff;stroke:#000000;stroke-width:1.5;stroke-linecap:butt;stroke-linejoin:bevel;stroke-miterlimit:4;stroke-dasharray:none;stroke-opacity:1" />
    <path
       sodipodi:nodetypes="ccccc"
       id="path884"
       d="m 105.45534,195.77999 49.37715,-25.15131 3e-5,32.55726 -49.37715,25.15132 z"
       style="fill:#ffffff;stroke:#000000;stroke-width:1.5;stroke-linecap:butt;stroke-linejoin:bevel;stroke-miterlimit:4;stroke-dasharray:none;stroke-opacity:1" />
    <path
       id="rect835-5-7-9"
       style="display:inline;opacity:1;vector-effect:none;fill:#ffffff;fill-opacity:1;stroke:#000000;stroke-width:1.5;stroke-linecap:round;stroke-linejoin:bevel;stroke-miterlimit:4;stroke-dasharray:none;stroke-dashoffset:0;stroke-opacity:1"
       d="m 154.83252,203.18594 c 5.64233,-24.85606 -3e-5,-29.79839 0.0284,-40.82602 -35.3927,10.62894 -38.92396,14.19325 -49.37714,25.1513 -23.255149,-9.73357 -24.688592,-12.57564 -49.37714,-25.1513 2.40542,17.34284 -0.02846,24.54739 -0.02845,40.82602"
       sodipodi:nodetypes="ccccc" />
    <path
       sodipodi:nodetypes="cccccc"
       d="m 56.049771,203.16935 c 12.858607,5.07813 33.073728,24.97022 49.405599,25.16791 -1e-5,-16.27863 5.64232,-26.41008 -1e-5,-40.84263 -23.255148,-9.73357 -24.688591,-12.57564 -49.377139,-25.1513 2.40542,17.34284 -0.02846,24.54739 -0.02845,40.82602 z"
       style="display:inline;opacity:1;vector-effect:none;fill:#ffffff;fill-opacity:1;stroke:#000000;stroke-width:1.5;stroke-linecap:round;stroke-linejoin:bevel;stroke-miterlimit:4;stroke-dasharray:none;stroke-dashoffset:0;stroke-opacity:1"
       id="rect835-5-7-9-4" />
  </g>
  <g
     inkscape:groupmode="layer"
     id="layer3"
     inkscape:label="CA max"
     style="display:none;mix-blend-mode:normal">
    <path
       id="rect835-5-7-8"
       style="opacity:1;vector-effect:none;fill:#ffffff;fill-opacity:1;stroke:#000000;stroke-width:1.66783;stroke-linecap:round;stroke-linejoin:bevel;stroke-miterlimit:4;stroke-dasharray:none;stroke-dashoffset:0;stroke-opacity:1"
       transform="matrix(0.89106201,0.45388158,-0.89106201,0.45388158,0,0)"
       d="m 165.31334,46.965378 h 55.41381 v 55.413812 h -55.41381 z" />
    <path
       id="path882-8"
       d="m 56.078209,121.50071 1.5e-5,81.68524 49.377146,25.15132 -3e-5,-81.68526 z"
       style="fill:#ffffff;stroke:#000000;stroke-width:1.5;stroke-linecap:butt;stroke-linejoin:bevel;stroke-miterlimit:4;stroke-dasharray:none;stroke-opacity:1"
       sodipodi:nodetypes="ccccc" />
    <path
       id="path884-3"
       d="m 105.45534,146.65201 49.37715,-25.15131 3e-5,81.68525 -49.37715,25.15132 z"
       style="fill:#ffffff;stroke:#000000;stroke-width:1.5;stroke-linecap:butt;stroke-linejoin:bevel;stroke-miterlimit:4;stroke-dasharray:none;stroke-opacity:1"
       sodipodi:nodetypes="ccccc" />
  </g>
  <g
     style="display:none;mix-blend-mode:normal"
     inkscape:label="max HIS"
     id="g3009"
     inkscape:groupmode="layer">
    <path
       d="m 165.31334,46.965378 h 55.41381 v 55.413812 h -55.41381 z"
       transform="matrix(0.89106201,0.45388158,-0.89106201,0.45388158,0,0)"
       style="opacity:1;vector-effect:none;fill:#f4cf56;fill-opacity:1;stroke:#000000;stroke-width:1.66783;stroke-linecap:round;stroke-linejoin:bevel;stroke-miterlimit:4;stroke-dasharray:none;stroke-dashoffset:0;stroke-opacity:1"
       id="path3003" />
    <path
       sodipodi:nodetypes="ccccc"
       style="fill:#f4cf56;fill-opacity:1;stroke:#000000;stroke-width:1.5;stroke-linecap:butt;stroke-linejoin:bevel;stroke-miterlimit:4;stroke-dasharray:none;stroke-opacity:1"
       d="m 56.078209,121.50071 1.5e-5,81.68524 49.377146,25.15132 -3e-5,-81.68526 z"
       id="path3005" />
    <path
       sodipodi:nodetypes="ccccc"
       style="fill:#f4cf56;fill-opacity:1;stroke:#000000;stroke-width:1.5;stroke-linecap:butt;stroke-linejoin:bevel;stroke-miterlimit:4;stroke-dasharray:none;stroke-opacity:1"
       d="m 105.45534,146.65201 49.37715,-25.15131 3e-5,81.68525 -49.37715,25.15132 z"
       id="path3007" />
  </g>
  <g
     style="display:none;mix-blend-mode:normal"
     inkscape:label="max HMP"
     id="g3017"
     inkscape:groupmode="layer">
    <path
       d="m 165.31334,46.965378 h 55.41381 v 55.413812 h -55.41381 z"
       transform="matrix(0.89106201,0.45388158,-0.89106201,0.45388158,0,0)"
       style="opacity:1;vector-effect:none;fill:#ca1d45;fill-opacity:1;stroke:#000000;stroke-width:1.66783;stroke-linecap:round;stroke-linejoin:bevel;stroke-miterlimit:4;stroke-dasharray:none;stroke-dashoffset:0;stroke-opacity:1"
       id="path3011" />
    <path
       sodipodi:nodetypes="ccccc"
       style="fill:#ca1d45;fill-opacity:1;stroke:#000000;stroke-width:1.5;stroke-linecap:butt;stroke-linejoin:bevel;stroke-miterlimit:4;stroke-dasharray:none;stroke-opacity:1"
       d="m 56.078209,121.50071 1.5e-5,81.68524 49.377146,25.15132 -3e-5,-81.68526 z"
       id="path3013" />
    <path
       sodipodi:nodetypes="ccccc"
       style="fill:#ca1d45;fill-opacity:1;stroke:#000000;stroke-width:1.5;stroke-linecap:butt;stroke-linejoin:bevel;stroke-miterlimit:4;stroke-dasharray:none;stroke-opacity:1"
       d="m 105.45534,146.65201 49.37715,-25.15131 3e-5,81.68525 -49.37715,25.15132 z"
       id="path3015" />
  </g>
  <g
     inkscape:groupmode="layer"
     id="g3033"
     inkscape:label="max alto"
     style="display:none;mix-blend-mode:normal">
    <path
       id="path3029"
       d="m 56.078209,121.50071 1.5e-5,81.68524 49.377146,25.15132 -3e-5,-81.68526 z"
       style="fill:#0b0743;fill-opacity:1;stroke:#000000;stroke-width:1.5;stroke-linecap:butt;stroke-linejoin:bevel;stroke-miterlimit:4;stroke-dasharray:none;stroke-opacity:1"
       sodipodi:nodetypes="ccccc" />
    <path
       id="path3031"
       d="m 105.45534,146.65201 49.37715,-25.15131 3e-5,81.68525 -49.37715,25.15132 z"
       style="fill:#0b0743;fill-opacity:1;stroke:#000000;stroke-width:1.5;stroke-linecap:butt;stroke-linejoin:bevel;stroke-miterlimit:4;stroke-dasharray:none;stroke-opacity:1"
       sodipodi:nodetypes="ccccc" />
    <path
       id="path3027"
       style="opacity:1;vector-effect:none;fill:#0b0743;fill-opacity:1;stroke:#ffffff;stroke-width:1.66783;stroke-linecap:round;stroke-linejoin:bevel;stroke-miterlimit:4;stroke-dasharray:none;stroke-dashoffset:0;stroke-opacity:1;filter:url(#filter3069)"
       transform="matrix(0.89106201,0.45388158,-0.89106201,0.45388158,0,0)"
       d="m 165.31334,46.965378 h 55.41381 v 55.413812 h -55.41381 z" />
  </g>
  <g
     inkscape:groupmode="layer"
     id="g3039"
     inkscape:label="min HMP"
     style="display:none">
    <path
       sodipodi:nodetypes="ccccc"
       id="path3035"
       d="m 56.07821,135.12904 1.2e-5,68.0569 49.377148,25.15132 -2e-5,-68.05692 z"
       style="fill:#ca1d45;fill-opacity:1;stroke:#000000;stroke-width:1.5;stroke-linecap:butt;stroke-linejoin:bevel;stroke-miterlimit:4;stroke-dasharray:none;stroke-opacity:1" />
    <path
       sodipodi:nodetypes="ccccc"
       id="path3037"
       d="m 105.45534,160.28034 49.37715,-25.15131 3e-5,68.05691 -49.37715,25.15132 z"
       style="fill:#ca1d45;fill-opacity:1;stroke:#000000;stroke-width:1.5;stroke-linecap:butt;stroke-linejoin:bevel;stroke-miterlimit:4;stroke-dasharray:none;stroke-opacity:1" />
  </g>
  <g
     style="display:none"
     inkscape:label="min HIS"
     id="g3025"
     inkscape:groupmode="layer">
    <path
       style="fill:#f4cf56;fill-opacity:1;stroke:#000000;stroke-width:1.5;stroke-linecap:butt;stroke-linejoin:bevel;stroke-miterlimit:4;stroke-dasharray:none;stroke-opacity:1"
       d="m 56.078209,150.24809 1.3e-5,52.93785 49.377148,25.15132 -3e-5,-52.93787 z"
       id="path3021"
       sodipodi:nodetypes="ccccc" />
    <path
       style="fill:#f4cf56;fill-opacity:1;stroke:#000000;stroke-width:1.5;stroke-linecap:butt;stroke-linejoin:bevel;stroke-miterlimit:4;stroke-dasharray:none;stroke-opacity:1"
       d="m 105.45534,175.39939 49.37715,-25.15131 3e-5,52.93786 -49.37715,25.15132 z"
       id="path3023"
       sodipodi:nodetypes="ccccc" />
  </g>
</svg>
